<mxfile host="Electron" agent="Mozilla/5.0 (Windows NT 10.0; Win64; x64) AppleWebKit/537.36 (KHTML, like Gecko) draw.io/27.0.2 Chrome/134.0.6998.205 Electron/35.3.0 Safari/537.36" version="27.0.2">
  <diagram name="Page-1" id="rPI7KzPbkXkREmGNHBCn">
    <mxGraphModel dx="1469" dy="921" grid="1" gridSize="10" guides="1" tooltips="1" connect="1" arrows="1" fold="1" page="1" pageScale="1" pageWidth="1400" pageHeight="850" math="0" shadow="0">
      <root>
        <mxCell id="0" />
        <mxCell id="1" parent="0" />
        <mxCell id="pOSwLfRpQy3Trz1Tj1-A-1" value="Client" style="rounded=0;whiteSpace=wrap;html=1;" parent="1" vertex="1">
          <mxGeometry x="20" y="310" width="210" height="100" as="geometry" />
        </mxCell>
        <mxCell id="pOSwLfRpQy3Trz1Tj1-A-10" value="" style="group" parent="1" vertex="1" connectable="0">
          <mxGeometry x="585" y="40" width="150" height="80" as="geometry" />
        </mxCell>
        <mxCell id="pOSwLfRpQy3Trz1Tj1-A-6" value="" style="rounded=1;whiteSpace=wrap;html=1;" parent="pOSwLfRpQy3Trz1Tj1-A-10" vertex="1">
          <mxGeometry width="150" height="80" as="geometry" />
        </mxCell>
        <mxCell id="pOSwLfRpQy3Trz1Tj1-A-7" value="" style="endArrow=none;html=1;rounded=0;exitX=0;exitY=0.5;exitDx=0;exitDy=0;entryX=1;entryY=0.5;entryDx=0;entryDy=0;" parent="pOSwLfRpQy3Trz1Tj1-A-10" source="pOSwLfRpQy3Trz1Tj1-A-6" target="pOSwLfRpQy3Trz1Tj1-A-6" edge="1">
          <mxGeometry width="50" height="50" relative="1" as="geometry">
            <mxPoint x="240" y="120" as="sourcePoint" />
            <mxPoint x="250" y="70" as="targetPoint" />
          </mxGeometry>
        </mxCell>
        <mxCell id="pOSwLfRpQy3Trz1Tj1-A-8" value="1.0" style="text;html=1;align=center;verticalAlign=middle;whiteSpace=wrap;rounded=0;" parent="pOSwLfRpQy3Trz1Tj1-A-10" vertex="1">
          <mxGeometry x="45" y="10" width="60" height="30" as="geometry" />
        </mxCell>
        <mxCell id="pOSwLfRpQy3Trz1Tj1-A-9" value="Log In" style="text;html=1;align=center;verticalAlign=middle;whiteSpace=wrap;rounded=0;" parent="pOSwLfRpQy3Trz1Tj1-A-10" vertex="1">
          <mxGeometry x="45" y="40" width="60" height="30" as="geometry" />
        </mxCell>
        <mxCell id="pOSwLfRpQy3Trz1Tj1-A-11" value="" style="group" parent="1" vertex="1" connectable="0">
          <mxGeometry x="585" y="160" width="150" height="80" as="geometry" />
        </mxCell>
        <mxCell id="pOSwLfRpQy3Trz1Tj1-A-12" value="" style="rounded=1;whiteSpace=wrap;html=1;" parent="pOSwLfRpQy3Trz1Tj1-A-11" vertex="1">
          <mxGeometry width="150" height="80" as="geometry" />
        </mxCell>
        <mxCell id="pOSwLfRpQy3Trz1Tj1-A-13" value="" style="endArrow=none;html=1;rounded=0;exitX=0;exitY=0.5;exitDx=0;exitDy=0;entryX=1;entryY=0.5;entryDx=0;entryDy=0;" parent="pOSwLfRpQy3Trz1Tj1-A-11" source="pOSwLfRpQy3Trz1Tj1-A-12" target="pOSwLfRpQy3Trz1Tj1-A-12" edge="1">
          <mxGeometry width="50" height="50" relative="1" as="geometry">
            <mxPoint x="240" y="120" as="sourcePoint" />
            <mxPoint x="250" y="70" as="targetPoint" />
          </mxGeometry>
        </mxCell>
        <mxCell id="pOSwLfRpQy3Trz1Tj1-A-14" value="2.0" style="text;html=1;align=center;verticalAlign=middle;whiteSpace=wrap;rounded=0;" parent="pOSwLfRpQy3Trz1Tj1-A-11" vertex="1">
          <mxGeometry x="45" y="10" width="60" height="30" as="geometry" />
        </mxCell>
        <mxCell id="pOSwLfRpQy3Trz1Tj1-A-15" value="Register" style="text;html=1;align=center;verticalAlign=middle;whiteSpace=wrap;rounded=0;" parent="pOSwLfRpQy3Trz1Tj1-A-11" vertex="1">
          <mxGeometry x="45" y="40" width="60" height="30" as="geometry" />
        </mxCell>
        <mxCell id="pOSwLfRpQy3Trz1Tj1-A-19" value="" style="group" parent="1" vertex="1" connectable="0">
          <mxGeometry x="290" y="180" width="150" height="80" as="geometry" />
        </mxCell>
        <mxCell id="pOSwLfRpQy3Trz1Tj1-A-20" value="" style="rounded=1;whiteSpace=wrap;html=1;" parent="pOSwLfRpQy3Trz1Tj1-A-19" vertex="1">
          <mxGeometry x="-10" width="150" height="80" as="geometry" />
        </mxCell>
        <mxCell id="pOSwLfRpQy3Trz1Tj1-A-21" value="" style="endArrow=none;html=1;rounded=0;exitX=0;exitY=0.5;exitDx=0;exitDy=0;entryX=1;entryY=0.5;entryDx=0;entryDy=0;" parent="pOSwLfRpQy3Trz1Tj1-A-19" source="pOSwLfRpQy3Trz1Tj1-A-20" target="pOSwLfRpQy3Trz1Tj1-A-20" edge="1">
          <mxGeometry width="50" height="50" relative="1" as="geometry">
            <mxPoint x="240" y="120" as="sourcePoint" />
            <mxPoint x="250" y="70" as="targetPoint" />
          </mxGeometry>
        </mxCell>
        <mxCell id="pOSwLfRpQy3Trz1Tj1-A-22" value="3.0" style="text;html=1;align=center;verticalAlign=middle;whiteSpace=wrap;rounded=0;" parent="pOSwLfRpQy3Trz1Tj1-A-19" vertex="1">
          <mxGeometry x="45" y="10" width="60" height="30" as="geometry" />
        </mxCell>
        <mxCell id="pOSwLfRpQy3Trz1Tj1-A-23" value="Order" style="text;html=1;align=center;verticalAlign=middle;whiteSpace=wrap;rounded=0;" parent="pOSwLfRpQy3Trz1Tj1-A-19" vertex="1">
          <mxGeometry x="45" y="50" width="65" height="20" as="geometry" />
        </mxCell>
        <mxCell id="pOSwLfRpQy3Trz1Tj1-A-25" value="" style="group" parent="1" vertex="1" connectable="0">
          <mxGeometry x="600" y="365" width="140" height="40" as="geometry" />
        </mxCell>
        <mxCell id="pOSwLfRpQy3Trz1Tj1-A-18" value="" style="html=1;dashed=0;whiteSpace=wrap;shape=mxgraph.dfd.dataStoreID;align=left;spacingLeft=3;points=[[0,0],[0.5,0],[1,0],[0,0.5],[1,0.5],[0,1],[0.5,1],[1,1]];" parent="pOSwLfRpQy3Trz1Tj1-A-25" vertex="1">
          <mxGeometry width="140" height="40" as="geometry" />
        </mxCell>
        <mxCell id="pOSwLfRpQy3Trz1Tj1-A-24" value="Database" style="text;html=1;align=center;verticalAlign=middle;whiteSpace=wrap;rounded=0;" parent="pOSwLfRpQy3Trz1Tj1-A-25" vertex="1">
          <mxGeometry x="45" y="5" width="60" height="30" as="geometry" />
        </mxCell>
        <mxCell id="pOSwLfRpQy3Trz1Tj1-A-26" value="" style="group" parent="1" vertex="1" connectable="0">
          <mxGeometry x="340" y="320" width="150" height="80" as="geometry" />
        </mxCell>
        <mxCell id="pOSwLfRpQy3Trz1Tj1-A-27" value="" style="rounded=1;whiteSpace=wrap;html=1;" parent="pOSwLfRpQy3Trz1Tj1-A-26" vertex="1">
          <mxGeometry width="150" height="80" as="geometry" />
        </mxCell>
        <mxCell id="pOSwLfRpQy3Trz1Tj1-A-28" value="" style="endArrow=none;html=1;rounded=0;exitX=0;exitY=0.5;exitDx=0;exitDy=0;entryX=1;entryY=0.5;entryDx=0;entryDy=0;" parent="pOSwLfRpQy3Trz1Tj1-A-26" source="pOSwLfRpQy3Trz1Tj1-A-27" target="pOSwLfRpQy3Trz1Tj1-A-27" edge="1">
          <mxGeometry width="50" height="50" relative="1" as="geometry">
            <mxPoint x="240" y="120" as="sourcePoint" />
            <mxPoint x="250" y="70" as="targetPoint" />
          </mxGeometry>
        </mxCell>
        <mxCell id="pOSwLfRpQy3Trz1Tj1-A-29" value="5.0" style="text;html=1;align=center;verticalAlign=middle;whiteSpace=wrap;rounded=0;" parent="pOSwLfRpQy3Trz1Tj1-A-26" vertex="1">
          <mxGeometry x="45" y="10" width="60" height="30" as="geometry" />
        </mxCell>
        <mxCell id="pOSwLfRpQy3Trz1Tj1-A-30" value="Payment" style="text;html=1;align=center;verticalAlign=middle;whiteSpace=wrap;rounded=0;" parent="pOSwLfRpQy3Trz1Tj1-A-26" vertex="1">
          <mxGeometry x="45" y="40" width="60" height="30" as="geometry" />
        </mxCell>
        <mxCell id="pOSwLfRpQy3Trz1Tj1-A-31" value="" style="group" parent="1" vertex="1" connectable="0">
          <mxGeometry x="940" y="120" width="150" height="80" as="geometry" />
        </mxCell>
        <mxCell id="pOSwLfRpQy3Trz1Tj1-A-32" value="" style="rounded=1;whiteSpace=wrap;html=1;" parent="pOSwLfRpQy3Trz1Tj1-A-31" vertex="1">
          <mxGeometry width="150" height="80" as="geometry" />
        </mxCell>
        <mxCell id="pOSwLfRpQy3Trz1Tj1-A-33" value="" style="endArrow=none;html=1;rounded=0;exitX=0;exitY=0.5;exitDx=0;exitDy=0;entryX=1;entryY=0.5;entryDx=0;entryDy=0;" parent="pOSwLfRpQy3Trz1Tj1-A-31" source="pOSwLfRpQy3Trz1Tj1-A-32" target="pOSwLfRpQy3Trz1Tj1-A-32" edge="1">
          <mxGeometry width="50" height="50" relative="1" as="geometry">
            <mxPoint x="240" y="120" as="sourcePoint" />
            <mxPoint x="250" y="70" as="targetPoint" />
          </mxGeometry>
        </mxCell>
        <mxCell id="pOSwLfRpQy3Trz1Tj1-A-34" value="7.0" style="text;html=1;align=center;verticalAlign=middle;whiteSpace=wrap;rounded=0;" parent="pOSwLfRpQy3Trz1Tj1-A-31" vertex="1">
          <mxGeometry x="45" y="10" width="60" height="30" as="geometry" />
        </mxCell>
        <mxCell id="pOSwLfRpQy3Trz1Tj1-A-35" value="Portfolio" style="text;html=1;align=center;verticalAlign=middle;whiteSpace=wrap;rounded=0;" parent="pOSwLfRpQy3Trz1Tj1-A-31" vertex="1">
          <mxGeometry x="45" y="40" width="60" height="30" as="geometry" />
        </mxCell>
        <mxCell id="pOSwLfRpQy3Trz1Tj1-A-37" value="Artist" style="rounded=0;whiteSpace=wrap;html=1;" parent="1" vertex="1">
          <mxGeometry x="1160" y="310" width="210" height="100" as="geometry" />
        </mxCell>
        <mxCell id="pOSwLfRpQy3Trz1Tj1-A-38" value="" style="group" parent="1" vertex="1" connectable="0">
          <mxGeometry x="590" y="670" width="150" height="80" as="geometry" />
        </mxCell>
        <mxCell id="pOSwLfRpQy3Trz1Tj1-A-39" value="" style="rounded=1;whiteSpace=wrap;html=1;" parent="pOSwLfRpQy3Trz1Tj1-A-38" vertex="1">
          <mxGeometry width="150" height="80" as="geometry" />
        </mxCell>
        <mxCell id="pOSwLfRpQy3Trz1Tj1-A-40" value="" style="endArrow=none;html=1;rounded=0;exitX=0;exitY=0.5;exitDx=0;exitDy=0;entryX=1;entryY=0.5;entryDx=0;entryDy=0;" parent="pOSwLfRpQy3Trz1Tj1-A-38" source="pOSwLfRpQy3Trz1Tj1-A-39" target="pOSwLfRpQy3Trz1Tj1-A-39" edge="1">
          <mxGeometry width="50" height="50" relative="1" as="geometry">
            <mxPoint x="240" y="120" as="sourcePoint" />
            <mxPoint x="250" y="70" as="targetPoint" />
          </mxGeometry>
        </mxCell>
        <mxCell id="pOSwLfRpQy3Trz1Tj1-A-41" value="4.0" style="text;html=1;align=center;verticalAlign=middle;whiteSpace=wrap;rounded=0;" parent="pOSwLfRpQy3Trz1Tj1-A-38" vertex="1">
          <mxGeometry x="45" y="10" width="60" height="30" as="geometry" />
        </mxCell>
        <mxCell id="pOSwLfRpQy3Trz1Tj1-A-42" value="Message" style="text;html=1;align=center;verticalAlign=middle;whiteSpace=wrap;rounded=0;" parent="pOSwLfRpQy3Trz1Tj1-A-38" vertex="1">
          <mxGeometry x="45" y="40" width="60" height="30" as="geometry" />
        </mxCell>
        <mxCell id="pOSwLfRpQy3Trz1Tj1-A-43" value="" style="group" parent="1" vertex="1" connectable="0">
          <mxGeometry x="360" y="460" width="150" height="80" as="geometry" />
        </mxCell>
        <mxCell id="pOSwLfRpQy3Trz1Tj1-A-44" value="" style="rounded=1;whiteSpace=wrap;html=1;" parent="pOSwLfRpQy3Trz1Tj1-A-43" vertex="1">
          <mxGeometry width="150" height="80" as="geometry" />
        </mxCell>
        <mxCell id="pOSwLfRpQy3Trz1Tj1-A-45" value="" style="endArrow=none;html=1;rounded=0;exitX=0;exitY=0.5;exitDx=0;exitDy=0;entryX=1;entryY=0.5;entryDx=0;entryDy=0;" parent="pOSwLfRpQy3Trz1Tj1-A-43" source="pOSwLfRpQy3Trz1Tj1-A-44" target="pOSwLfRpQy3Trz1Tj1-A-44" edge="1">
          <mxGeometry width="50" height="50" relative="1" as="geometry">
            <mxPoint x="240" y="120" as="sourcePoint" />
            <mxPoint x="250" y="70" as="targetPoint" />
          </mxGeometry>
        </mxCell>
        <mxCell id="pOSwLfRpQy3Trz1Tj1-A-46" value="6.0" style="text;html=1;align=center;verticalAlign=middle;whiteSpace=wrap;rounded=0;" parent="pOSwLfRpQy3Trz1Tj1-A-43" vertex="1">
          <mxGeometry x="45" y="10" width="60" height="30" as="geometry" />
        </mxCell>
        <mxCell id="pOSwLfRpQy3Trz1Tj1-A-47" value="History" style="text;html=1;align=center;verticalAlign=middle;whiteSpace=wrap;rounded=0;" parent="pOSwLfRpQy3Trz1Tj1-A-43" vertex="1">
          <mxGeometry x="45" y="40" width="60" height="30" as="geometry" />
        </mxCell>
        <mxCell id="pOSwLfRpQy3Trz1Tj1-A-52" value="" style="group" parent="1" vertex="1" connectable="0">
          <mxGeometry x="920" y="250" width="150" height="80" as="geometry" />
        </mxCell>
        <mxCell id="pOSwLfRpQy3Trz1Tj1-A-53" value="" style="rounded=1;whiteSpace=wrap;html=1;" parent="pOSwLfRpQy3Trz1Tj1-A-52" vertex="1">
          <mxGeometry width="150" height="80" as="geometry" />
        </mxCell>
        <mxCell id="pOSwLfRpQy3Trz1Tj1-A-54" value="" style="endArrow=none;html=1;rounded=0;exitX=0;exitY=0.5;exitDx=0;exitDy=0;entryX=1;entryY=0.5;entryDx=0;entryDy=0;" parent="pOSwLfRpQy3Trz1Tj1-A-52" source="pOSwLfRpQy3Trz1Tj1-A-53" target="pOSwLfRpQy3Trz1Tj1-A-53" edge="1">
          <mxGeometry width="50" height="50" relative="1" as="geometry">
            <mxPoint x="240" y="120" as="sourcePoint" />
            <mxPoint x="250" y="70" as="targetPoint" />
          </mxGeometry>
        </mxCell>
        <mxCell id="pOSwLfRpQy3Trz1Tj1-A-55" value="8.0" style="text;html=1;align=center;verticalAlign=middle;whiteSpace=wrap;rounded=0;" parent="pOSwLfRpQy3Trz1Tj1-A-52" vertex="1">
          <mxGeometry x="45" y="10" width="60" height="30" as="geometry" />
        </mxCell>
        <mxCell id="pOSwLfRpQy3Trz1Tj1-A-56" value="Comm. Products" style="text;html=1;align=center;verticalAlign=middle;whiteSpace=wrap;rounded=0;" parent="pOSwLfRpQy3Trz1Tj1-A-52" vertex="1">
          <mxGeometry x="45" y="40" width="60" height="30" as="geometry" />
        </mxCell>
        <mxCell id="pOSwLfRpQy3Trz1Tj1-A-57" value="" style="group" parent="1" vertex="1" connectable="0">
          <mxGeometry x="840" y="400" width="150" height="80" as="geometry" />
        </mxCell>
        <mxCell id="pOSwLfRpQy3Trz1Tj1-A-58" value="" style="rounded=1;whiteSpace=wrap;html=1;" parent="pOSwLfRpQy3Trz1Tj1-A-57" vertex="1">
          <mxGeometry width="150" height="80" as="geometry" />
        </mxCell>
        <mxCell id="pOSwLfRpQy3Trz1Tj1-A-59" value="" style="endArrow=none;html=1;rounded=0;exitX=0;exitY=0.5;exitDx=0;exitDy=0;entryX=1;entryY=0.5;entryDx=0;entryDy=0;" parent="pOSwLfRpQy3Trz1Tj1-A-57" source="pOSwLfRpQy3Trz1Tj1-A-58" target="pOSwLfRpQy3Trz1Tj1-A-58" edge="1">
          <mxGeometry width="50" height="50" relative="1" as="geometry">
            <mxPoint x="240" y="120" as="sourcePoint" />
            <mxPoint x="250" y="70" as="targetPoint" />
          </mxGeometry>
        </mxCell>
        <mxCell id="pOSwLfRpQy3Trz1Tj1-A-60" value="9.0" style="text;html=1;align=center;verticalAlign=middle;whiteSpace=wrap;rounded=0;" parent="pOSwLfRpQy3Trz1Tj1-A-57" vertex="1">
          <mxGeometry x="45" y="10" width="60" height="30" as="geometry" />
        </mxCell>
        <mxCell id="pOSwLfRpQy3Trz1Tj1-A-61" value="Manage Orders" style="text;html=1;align=center;verticalAlign=middle;whiteSpace=wrap;rounded=0;" parent="pOSwLfRpQy3Trz1Tj1-A-57" vertex="1">
          <mxGeometry x="45" y="40" width="60" height="30" as="geometry" />
        </mxCell>
        <mxCell id="pOSwLfRpQy3Trz1Tj1-A-62" value="" style="group" parent="1" vertex="1" connectable="0">
          <mxGeometry x="840" y="560" width="150" height="80" as="geometry" />
        </mxCell>
        <mxCell id="pOSwLfRpQy3Trz1Tj1-A-63" value="" style="rounded=1;whiteSpace=wrap;html=1;" parent="pOSwLfRpQy3Trz1Tj1-A-62" vertex="1">
          <mxGeometry width="150" height="80" as="geometry" />
        </mxCell>
        <mxCell id="pOSwLfRpQy3Trz1Tj1-A-64" value="" style="endArrow=none;html=1;rounded=0;exitX=0;exitY=0.5;exitDx=0;exitDy=0;entryX=1;entryY=0.5;entryDx=0;entryDy=0;" parent="pOSwLfRpQy3Trz1Tj1-A-62" source="pOSwLfRpQy3Trz1Tj1-A-63" target="pOSwLfRpQy3Trz1Tj1-A-63" edge="1">
          <mxGeometry width="50" height="50" relative="1" as="geometry">
            <mxPoint x="240" y="120" as="sourcePoint" />
            <mxPoint x="250" y="70" as="targetPoint" />
          </mxGeometry>
        </mxCell>
        <mxCell id="pOSwLfRpQy3Trz1Tj1-A-65" value="10.0" style="text;html=1;align=center;verticalAlign=middle;whiteSpace=wrap;rounded=0;" parent="pOSwLfRpQy3Trz1Tj1-A-62" vertex="1">
          <mxGeometry x="45" y="10" width="60" height="30" as="geometry" />
        </mxCell>
        <mxCell id="pOSwLfRpQy3Trz1Tj1-A-66" value="Sales Overview" style="text;html=1;align=center;verticalAlign=middle;whiteSpace=wrap;rounded=0;" parent="pOSwLfRpQy3Trz1Tj1-A-62" vertex="1">
          <mxGeometry x="45" y="40" width="60" height="30" as="geometry" />
        </mxCell>
        <mxCell id="pOSwLfRpQy3Trz1Tj1-A-68" value="" style="endArrow=classic;html=1;rounded=0;exitX=0.311;exitY=-0.004;exitDx=0;exitDy=0;exitPerimeter=0;" parent="1" source="pOSwLfRpQy3Trz1Tj1-A-1" edge="1">
          <mxGeometry width="50" height="50" relative="1" as="geometry">
            <mxPoint x="160" y="280" as="sourcePoint" />
            <mxPoint x="580" y="80" as="targetPoint" />
            <Array as="points">
              <mxPoint x="85" y="80" />
            </Array>
          </mxGeometry>
        </mxCell>
        <mxCell id="pOSwLfRpQy3Trz1Tj1-A-69" value="" style="endArrow=classic;html=1;rounded=0;exitX=0.5;exitY=0;exitDx=0;exitDy=0;" parent="1" source="pOSwLfRpQy3Trz1Tj1-A-1" edge="1">
          <mxGeometry width="50" height="50" relative="1" as="geometry">
            <mxPoint x="610" y="350" as="sourcePoint" />
            <mxPoint x="580" y="190" as="targetPoint" />
            <Array as="points">
              <mxPoint x="125" y="120" />
              <mxPoint x="560" y="120" />
              <mxPoint x="560" y="190" />
            </Array>
          </mxGeometry>
        </mxCell>
        <mxCell id="pOSwLfRpQy3Trz1Tj1-A-70" value="" style="endArrow=classic;html=1;rounded=0;exitX=0.692;exitY=-0.029;exitDx=0;exitDy=0;exitPerimeter=0;entryX=0;entryY=0.25;entryDx=0;entryDy=0;" parent="1" source="pOSwLfRpQy3Trz1Tj1-A-1" target="pOSwLfRpQy3Trz1Tj1-A-20" edge="1">
          <mxGeometry width="50" height="50" relative="1" as="geometry">
            <mxPoint x="610" y="350" as="sourcePoint" />
            <mxPoint x="660" y="300" as="targetPoint" />
            <Array as="points">
              <mxPoint x="165" y="200" />
            </Array>
          </mxGeometry>
        </mxCell>
        <mxCell id="pOSwLfRpQy3Trz1Tj1-A-71" value="" style="endArrow=classic;html=1;rounded=0;entryX=0;entryY=0.5;entryDx=0;entryDy=0;exitX=1;exitY=0.5;exitDx=0;exitDy=0;" parent="1" source="pOSwLfRpQy3Trz1Tj1-A-1" target="pOSwLfRpQy3Trz1Tj1-A-27" edge="1">
          <mxGeometry width="50" height="50" relative="1" as="geometry">
            <mxPoint x="310" y="360" as="sourcePoint" />
            <mxPoint x="660" y="300" as="targetPoint" />
          </mxGeometry>
        </mxCell>
        <mxCell id="pOSwLfRpQy3Trz1Tj1-A-72" value="" style="endArrow=classic;html=1;rounded=0;exitX=1;exitY=0.75;exitDx=0;exitDy=0;" parent="1" source="pOSwLfRpQy3Trz1Tj1-A-20" edge="1">
          <mxGeometry width="50" height="50" relative="1" as="geometry">
            <mxPoint x="570" y="410" as="sourcePoint" />
            <mxPoint x="620" y="360" as="targetPoint" />
            <Array as="points">
              <mxPoint x="560" y="240" />
              <mxPoint x="560" y="310" />
              <mxPoint x="620" y="310" />
            </Array>
          </mxGeometry>
        </mxCell>
        <mxCell id="pOSwLfRpQy3Trz1Tj1-A-73" value="" style="endArrow=classic;html=1;rounded=0;exitX=1;exitY=0.75;exitDx=0;exitDy=0;" parent="1" source="pOSwLfRpQy3Trz1Tj1-A-27" edge="1">
          <mxGeometry width="50" height="50" relative="1" as="geometry">
            <mxPoint x="570" y="410" as="sourcePoint" />
            <mxPoint x="599" y="380" as="targetPoint" />
          </mxGeometry>
        </mxCell>
        <mxCell id="pOSwLfRpQy3Trz1Tj1-A-74" value="" style="endArrow=classic;html=1;rounded=0;entryX=0.679;entryY=0.982;entryDx=0;entryDy=0;entryPerimeter=0;exitX=0;exitY=0.5;exitDx=0;exitDy=0;" parent="1" source="pOSwLfRpQy3Trz1Tj1-A-44" target="pOSwLfRpQy3Trz1Tj1-A-1" edge="1">
          <mxGeometry width="50" height="50" relative="1" as="geometry">
            <mxPoint x="640" y="400" as="sourcePoint" />
            <mxPoint x="690" y="350" as="targetPoint" />
            <Array as="points">
              <mxPoint x="163" y="500" />
            </Array>
          </mxGeometry>
        </mxCell>
        <mxCell id="pOSwLfRpQy3Trz1Tj1-A-75" value="" style="endArrow=classic;html=1;rounded=0;exitX=0.293;exitY=0.996;exitDx=0;exitDy=0;exitPerimeter=0;" parent="1" source="pOSwLfRpQy3Trz1Tj1-A-18" edge="1">
          <mxGeometry width="50" height="50" relative="1" as="geometry">
            <mxPoint x="640" y="410" as="sourcePoint" />
            <mxPoint x="510" y="500" as="targetPoint" />
            <Array as="points">
              <mxPoint x="640" y="500" />
            </Array>
          </mxGeometry>
        </mxCell>
        <mxCell id="pOSwLfRpQy3Trz1Tj1-A-76" value="" style="endArrow=classic;startArrow=classic;html=1;rounded=0;exitX=0.5;exitY=1;exitDx=0;exitDy=0;" parent="1" source="pOSwLfRpQy3Trz1Tj1-A-1" edge="1">
          <mxGeometry width="50" height="50" relative="1" as="geometry">
            <mxPoint x="760" y="350" as="sourcePoint" />
            <mxPoint x="590" y="710" as="targetPoint" />
            <Array as="points">
              <mxPoint x="125" y="710" />
            </Array>
          </mxGeometry>
        </mxCell>
        <mxCell id="pOSwLfRpQy3Trz1Tj1-A-77" value="" style="endArrow=classic;startArrow=classic;html=1;rounded=0;entryX=0.5;entryY=1;entryDx=0;entryDy=0;" parent="1" target="pOSwLfRpQy3Trz1Tj1-A-37" edge="1">
          <mxGeometry width="50" height="50" relative="1" as="geometry">
            <mxPoint x="740" y="710" as="sourcePoint" />
            <mxPoint x="810" y="300" as="targetPoint" />
            <Array as="points">
              <mxPoint x="1265" y="710" />
            </Array>
          </mxGeometry>
        </mxCell>
        <mxCell id="pOSwLfRpQy3Trz1Tj1-A-78" value="" style="endArrow=classic;html=1;rounded=0;exitX=0.579;exitY=1.004;exitDx=0;exitDy=0;exitPerimeter=0;" parent="1" source="pOSwLfRpQy3Trz1Tj1-A-18" edge="1">
          <mxGeometry width="50" height="50" relative="1" as="geometry">
            <mxPoint x="680" y="410" as="sourcePoint" />
            <mxPoint x="840" y="600" as="targetPoint" />
            <Array as="points">
              <mxPoint x="680" y="600" />
            </Array>
          </mxGeometry>
        </mxCell>
        <mxCell id="pOSwLfRpQy3Trz1Tj1-A-80" value="" style="endArrow=classic;html=1;rounded=0;" parent="1" edge="1">
          <mxGeometry width="50" height="50" relative="1" as="geometry">
            <mxPoint x="840" y="470" as="sourcePoint" />
            <mxPoint x="700" y="410" as="targetPoint" />
            <Array as="points">
              <mxPoint x="700" y="470" />
            </Array>
          </mxGeometry>
        </mxCell>
        <mxCell id="pOSwLfRpQy3Trz1Tj1-A-81" value="" style="endArrow=classic;html=1;rounded=0;" parent="1" edge="1">
          <mxGeometry width="50" height="50" relative="1" as="geometry">
            <mxPoint x="920" y="290" as="sourcePoint" />
            <mxPoint x="740" y="400" as="targetPoint" />
            <Array as="points">
              <mxPoint x="800" y="290" />
              <mxPoint x="800" y="400" />
            </Array>
          </mxGeometry>
        </mxCell>
        <mxCell id="pOSwLfRpQy3Trz1Tj1-A-82" value="" style="endArrow=classic;html=1;rounded=0;exitX=0;exitY=0.5;exitDx=0;exitDy=0;" parent="1" source="pOSwLfRpQy3Trz1Tj1-A-32" edge="1">
          <mxGeometry width="50" height="50" relative="1" as="geometry">
            <mxPoint x="960" y="140" as="sourcePoint" />
            <mxPoint x="740" y="370" as="targetPoint" />
            <Array as="points">
              <mxPoint x="780" y="160" />
              <mxPoint x="780" y="370" />
            </Array>
          </mxGeometry>
        </mxCell>
        <mxCell id="pOSwLfRpQy3Trz1Tj1-A-83" value="" style="endArrow=classic;html=1;rounded=0;" parent="1" edge="1">
          <mxGeometry width="50" height="50" relative="1" as="geometry">
            <mxPoint x="664.5" y="240" as="sourcePoint" />
            <mxPoint x="665" y="360" as="targetPoint" />
          </mxGeometry>
        </mxCell>
        <mxCell id="pOSwLfRpQy3Trz1Tj1-A-85" value="" style="endArrow=classic;html=1;rounded=0;entryX=1;entryY=0.25;entryDx=0;entryDy=0;exitX=0.868;exitY=-0.008;exitDx=0;exitDy=0;exitPerimeter=0;" parent="1" source="pOSwLfRpQy3Trz1Tj1-A-37" target="pOSwLfRpQy3Trz1Tj1-A-6" edge="1">
          <mxGeometry width="50" height="50" relative="1" as="geometry">
            <mxPoint x="1343" y="300" as="sourcePoint" />
            <mxPoint x="810" y="300" as="targetPoint" />
            <Array as="points">
              <mxPoint x="1343" y="60" />
            </Array>
          </mxGeometry>
        </mxCell>
        <mxCell id="pOSwLfRpQy3Trz1Tj1-A-86" value="" style="endArrow=classic;html=1;rounded=0;" parent="1" edge="1">
          <mxGeometry width="50" height="50" relative="1" as="geometry">
            <mxPoint x="1300" y="308" as="sourcePoint" />
            <mxPoint x="730" y="200" as="targetPoint" />
            <Array as="points">
              <mxPoint x="1300" y="100" />
              <mxPoint x="760" y="100" />
              <mxPoint x="760" y="200" />
            </Array>
          </mxGeometry>
        </mxCell>
        <mxCell id="pOSwLfRpQy3Trz1Tj1-A-87" value="" style="endArrow=classic;html=1;rounded=0;exitX=1;exitY=0.75;exitDx=0;exitDy=0;" parent="1" source="pOSwLfRpQy3Trz1Tj1-A-6" edge="1">
          <mxGeometry width="50" height="50" relative="1" as="geometry">
            <mxPoint x="760" y="350" as="sourcePoint" />
            <mxPoint x="720" y="370" as="targetPoint" />
            <Array as="points">
              <mxPoint x="750" y="100" />
              <mxPoint x="750" y="320" />
              <mxPoint x="720" y="320" />
            </Array>
          </mxGeometry>
        </mxCell>
        <mxCell id="pOSwLfRpQy3Trz1Tj1-A-88" value="" style="endArrow=classic;html=1;rounded=0;exitX=0.376;exitY=-0.014;exitDx=0;exitDy=0;exitPerimeter=0;" parent="1" source="pOSwLfRpQy3Trz1Tj1-A-37" edge="1">
          <mxGeometry width="50" height="50" relative="1" as="geometry">
            <mxPoint x="1240" y="310" as="sourcePoint" />
            <mxPoint x="1090" y="160" as="targetPoint" />
            <Array as="points">
              <mxPoint x="1240" y="160" />
            </Array>
          </mxGeometry>
        </mxCell>
        <mxCell id="pOSwLfRpQy3Trz1Tj1-A-89" value="" style="endArrow=classic;html=1;rounded=0;exitX=0.12;exitY=0.001;exitDx=0;exitDy=0;exitPerimeter=0;entryX=1;entryY=0.25;entryDx=0;entryDy=0;" parent="1" source="pOSwLfRpQy3Trz1Tj1-A-37" target="pOSwLfRpQy3Trz1Tj1-A-53" edge="1">
          <mxGeometry width="50" height="50" relative="1" as="geometry">
            <mxPoint x="760" y="350" as="sourcePoint" />
            <mxPoint x="810" y="300" as="targetPoint" />
            <Array as="points">
              <mxPoint x="1185" y="270" />
              <mxPoint x="1120" y="270" />
            </Array>
          </mxGeometry>
        </mxCell>
        <mxCell id="pOSwLfRpQy3Trz1Tj1-A-90" value="" style="endArrow=classic;html=1;rounded=0;" parent="1" edge="1">
          <mxGeometry width="50" height="50" relative="1" as="geometry">
            <mxPoint x="991" y="434" as="sourcePoint" />
            <mxPoint x="1160" y="362" as="targetPoint" />
            <Array as="points">
              <mxPoint x="1120" y="434" />
              <mxPoint x="1120" y="360" />
            </Array>
          </mxGeometry>
        </mxCell>
        <mxCell id="pOSwLfRpQy3Trz1Tj1-A-91" value="" style="endArrow=classic;html=1;rounded=0;entryX=1;entryY=0.75;entryDx=0;entryDy=0;exitX=0.124;exitY=1;exitDx=0;exitDy=0;exitPerimeter=0;" parent="1" source="pOSwLfRpQy3Trz1Tj1-A-37" target="pOSwLfRpQy3Trz1Tj1-A-58" edge="1">
          <mxGeometry width="50" height="50" relative="1" as="geometry">
            <mxPoint x="1186" y="423" as="sourcePoint" />
            <mxPoint x="990" y="280" as="targetPoint" />
            <Array as="points">
              <mxPoint x="1186" y="460" />
              <mxPoint x="1121" y="460" />
            </Array>
          </mxGeometry>
        </mxCell>
        <mxCell id="pOSwLfRpQy3Trz1Tj1-A-92" value="" style="endArrow=classic;html=1;rounded=0;entryX=0.314;entryY=1.006;entryDx=0;entryDy=0;entryPerimeter=0;" parent="1" target="pOSwLfRpQy3Trz1Tj1-A-37" edge="1">
          <mxGeometry width="50" height="50" relative="1" as="geometry">
            <mxPoint x="990" y="600" as="sourcePoint" />
            <mxPoint x="990" y="440" as="targetPoint" />
            <Array as="points">
              <mxPoint x="1226" y="600" />
            </Array>
          </mxGeometry>
        </mxCell>
        <mxCell id="pOSwLfRpQy3Trz1Tj1-A-98" value="User Log In Info" style="text;html=1;align=center;verticalAlign=middle;whiteSpace=wrap;rounded=0;" parent="1" vertex="1">
          <mxGeometry x="290" y="50" width="130" height="30" as="geometry" />
        </mxCell>
        <mxCell id="pOSwLfRpQy3Trz1Tj1-A-99" value="User Info" style="text;html=1;align=center;verticalAlign=middle;whiteSpace=wrap;rounded=0;" parent="1" vertex="1">
          <mxGeometry x="290" y="90" width="130" height="30" as="geometry" />
        </mxCell>
        <mxCell id="pOSwLfRpQy3Trz1Tj1-A-100" value="Browse Comms" style="text;html=1;align=center;verticalAlign=middle;whiteSpace=wrap;rounded=0;" parent="1" vertex="1">
          <mxGeometry x="150" y="170" width="130" height="30" as="geometry" />
        </mxCell>
        <mxCell id="pOSwLfRpQy3Trz1Tj1-A-102" value="Payment Details" style="text;html=1;align=center;verticalAlign=middle;whiteSpace=wrap;rounded=0;" parent="1" vertex="1">
          <mxGeometry x="220" y="330" width="130" height="30" as="geometry" />
        </mxCell>
        <mxCell id="pOSwLfRpQy3Trz1Tj1-A-104" value="View Order" style="text;html=1;align=center;verticalAlign=middle;whiteSpace=wrap;rounded=0;" parent="1" vertex="1">
          <mxGeometry x="200" y="470" width="130" height="30" as="geometry" />
        </mxCell>
        <mxCell id="pOSwLfRpQy3Trz1Tj1-A-105" value="Order Details" style="text;html=1;align=center;verticalAlign=middle;whiteSpace=wrap;rounded=0;" parent="1" vertex="1">
          <mxGeometry x="510" y="470" width="130" height="30" as="geometry" />
        </mxCell>
        <mxCell id="pOSwLfRpQy3Trz1Tj1-A-107" value="Order Details" style="text;html=1;align=center;verticalAlign=middle;whiteSpace=wrap;rounded=0;" parent="1" vertex="1">
          <mxGeometry x="290" y="680" width="130" height="30" as="geometry" />
        </mxCell>
        <mxCell id="pOSwLfRpQy3Trz1Tj1-A-108" value="Payment Ref. No." style="text;html=1;align=center;verticalAlign=middle;whiteSpace=wrap;rounded=0;" parent="1" vertex="1">
          <mxGeometry x="480" y="350" width="130" height="30" as="geometry" />
        </mxCell>
        <mxCell id="pOSwLfRpQy3Trz1Tj1-A-109" value="Custom Order Details" style="text;html=1;align=center;verticalAlign=middle;whiteSpace=wrap;rounded=0;" parent="1" vertex="1">
          <mxGeometry x="430" y="205" width="130" height="30" as="geometry" />
        </mxCell>
        <mxCell id="pOSwLfRpQy3Trz1Tj1-A-112" style="edgeStyle=orthogonalEdgeStyle;rounded=0;orthogonalLoop=1;jettySize=auto;html=1;exitX=0.5;exitY=1;exitDx=0;exitDy=0;" parent="1" source="pOSwLfRpQy3Trz1Tj1-A-109" target="pOSwLfRpQy3Trz1Tj1-A-109" edge="1">
          <mxGeometry relative="1" as="geometry" />
        </mxCell>
        <mxCell id="pOSwLfRpQy3Trz1Tj1-A-113" value="Order Details" style="text;html=1;align=center;verticalAlign=middle;whiteSpace=wrap;rounded=0;" parent="1" vertex="1">
          <mxGeometry x="940" y="680" width="130" height="30" as="geometry" />
        </mxCell>
        <mxCell id="pOSwLfRpQy3Trz1Tj1-A-114" value="Order Info" style="text;html=1;align=center;verticalAlign=middle;whiteSpace=wrap;rounded=0;" parent="1" vertex="1">
          <mxGeometry x="690" y="570" width="130" height="30" as="geometry" />
        </mxCell>
        <mxCell id="pOSwLfRpQy3Trz1Tj1-A-115" value="Sales Data" style="text;html=1;align=center;verticalAlign=middle;whiteSpace=wrap;rounded=0;" parent="1" vertex="1">
          <mxGeometry x="1040" y="570" width="130" height="30" as="geometry" />
        </mxCell>
        <mxCell id="pOSwLfRpQy3Trz1Tj1-A-118" value="" style="endArrow=classic;html=1;rounded=0;" parent="1" edge="1">
          <mxGeometry width="50" height="50" relative="1" as="geometry">
            <mxPoint x="720" y="410" as="sourcePoint" />
            <mxPoint x="840" y="440" as="targetPoint" />
            <Array as="points">
              <mxPoint x="720" y="440" />
            </Array>
          </mxGeometry>
        </mxCell>
        <mxCell id="pOSwLfRpQy3Trz1Tj1-A-119" value="Order Confirmation" style="text;html=1;align=center;verticalAlign=middle;whiteSpace=wrap;rounded=0;" parent="1" vertex="1">
          <mxGeometry x="700" y="440" width="130" height="30" as="geometry" />
        </mxCell>
        <mxCell id="pOSwLfRpQy3Trz1Tj1-A-120" value="Order List" style="text;html=1;align=center;verticalAlign=middle;whiteSpace=wrap;rounded=0;" parent="1" vertex="1">
          <mxGeometry x="710" y="410" width="130" height="30" as="geometry" />
        </mxCell>
        <mxCell id="pOSwLfRpQy3Trz1Tj1-A-123" value="Confirm" style="text;html=1;align=center;verticalAlign=middle;whiteSpace=wrap;rounded=0;" parent="1" vertex="1">
          <mxGeometry x="1020" y="430" width="130" height="30" as="geometry" />
        </mxCell>
        <mxCell id="pOSwLfRpQy3Trz1Tj1-A-125" value="View Orders" style="text;html=1;align=center;verticalAlign=middle;whiteSpace=wrap;rounded=0;" parent="1" vertex="1">
          <mxGeometry x="990" y="405" width="130" height="30" as="geometry" />
        </mxCell>
        <mxCell id="pOSwLfRpQy3Trz1Tj1-A-126" value="Product Details" style="text;html=1;align=center;verticalAlign=middle;whiteSpace=wrap;rounded=0;" parent="1" vertex="1">
          <mxGeometry x="1060" y="240" width="130" height="30" as="geometry" />
        </mxCell>
        <mxCell id="pOSwLfRpQy3Trz1Tj1-A-127" value="User Info" style="text;html=1;align=center;verticalAlign=middle;whiteSpace=wrap;rounded=0;" parent="1" vertex="1">
          <mxGeometry x="590" y="290" width="145" height="40" as="geometry" />
        </mxCell>
        <mxCell id="pOSwLfRpQy3Trz1Tj1-A-128" value="Product Details" style="text;html=1;align=center;verticalAlign=middle;whiteSpace=wrap;rounded=0;" parent="1" vertex="1">
          <mxGeometry x="790" y="260" width="130" height="30" as="geometry" />
        </mxCell>
        <mxCell id="pOSwLfRpQy3Trz1Tj1-A-130" value="Upload Art Samples" style="text;html=1;align=center;verticalAlign=middle;whiteSpace=wrap;rounded=0;" parent="1" vertex="1">
          <mxGeometry x="1110" y="140" width="110" height="10" as="geometry" />
        </mxCell>
        <mxCell id="pOSwLfRpQy3Trz1Tj1-A-131" value="Portfolio Details" style="text;html=1;align=center;verticalAlign=middle;whiteSpace=wrap;rounded=0;" parent="1" vertex="1">
          <mxGeometry x="800" y="130" width="130" height="30" as="geometry" />
        </mxCell>
        <mxCell id="pOSwLfRpQy3Trz1Tj1-A-132" style="edgeStyle=orthogonalEdgeStyle;rounded=0;orthogonalLoop=1;jettySize=auto;html=1;exitX=0.25;exitY=1;exitDx=0;exitDy=0;entryX=0.143;entryY=1.376;entryDx=0;entryDy=0;entryPerimeter=0;" parent="1" source="pOSwLfRpQy3Trz1Tj1-A-130" target="pOSwLfRpQy3Trz1Tj1-A-130" edge="1">
          <mxGeometry relative="1" as="geometry" />
        </mxCell>
        <mxCell id="pOSwLfRpQy3Trz1Tj1-A-134" value="User Info" style="text;html=1;align=center;verticalAlign=middle;whiteSpace=wrap;rounded=0;" parent="1" vertex="1">
          <mxGeometry x="950" y="70" width="130" height="30" as="geometry" />
        </mxCell>
        <mxCell id="pOSwLfRpQy3Trz1Tj1-A-135" value="User Log In Info" style="text;html=1;align=center;verticalAlign=middle;whiteSpace=wrap;rounded=0;" parent="1" vertex="1">
          <mxGeometry x="950" y="30" width="130" height="30" as="geometry" />
        </mxCell>
      </root>
    </mxGraphModel>
  </diagram>
</mxfile>
